{
	"asset":{
		"generator":"Khronos glTF Blender I/O v4.0.44",
		"version":"2.0"
	},
	"scene":0,
	"scenes":[
		{
			"name":"Scene",
			"nodes":[
				0
			]
		}
	],
	"nodes":[
		{
			"mesh":0,
			"name":"Cube"
		}
	],
	"animations":[
		{
			"channels":[
				{
					"sampler":0,
					"target":{
						"node":0,
						"path":"rotation"
					}
				},
				{
					"sampler":1,
					"target":{
						"node":0,
						"path":"scale"
					}
				}
			],
			"name":"CubeAction",
			"samplers":[
				{
					"input":4,
					"interpolation":"LINEAR",
					"output":5
				},
				{
					"input":4,
					"interpolation":"LINEAR",
					"output":6
				}
			]
		}
	],
	"materials":[
		{
			"doubleSided":true,
			"name":"Material.001",
			"pbrMetallicRoughness":{
				"baseColorTexture":{
					"index":0
				},
				"metallicFactor":0,
				"roughnessFactor":0.5
			}
		}
	],
	"meshes":[
		{
			"name":"Cube.001",
			"primitives":[
				{
					"attributes":{
						"POSITION":0,
						"NORMAL":1,
						"TEXCOORD_0":2
					},
					"indices":3,
					"material":0
				}
			]
		}
	],
	"textures":[
		{
			"sampler":0,
			"source":0
		}
	],
	"images":[
		{
			"mimeType":"image/png",
			"name":"Untitled",
			"uri":"Untitled.png"
		}
	],
	"accessors":[
		{
			"bufferView":0,
			"componentType":5126,
			"count":312,
			"max":[
				1.4254038333892822,
				1.4254038333892822,
				1.4254038333892822
			],
			"min":[
				-1.4254038333892822,
				-1.4254038333892822,
				-1.4254038333892822
			],
			"type":"VEC3"
		},
		{
			"bufferView":1,
			"componentType":5126,
			"count":312,
			"type":"VEC3"
		},
		{
			"bufferView":2,
			"componentType":5126,
			"count":312,
			"type":"VEC2"
		},
		{
			"bufferView":3,
			"componentType":5123,
			"count":612,
			"type":"SCALAR"
		},
		{
			"bufferView":4,
			"componentType":5126,
			"count":90,
			"max":[
				3.75
			],
			"min":[
				0.041666666666666664
			],
			"type":"SCALAR"
		},
		{
			"bufferView":5,
			"componentType":5126,
			"count":90,
			"type":"VEC4"
		},
		{
			"bufferView":6,
			"componentType":5126,
			"count":90,
			"type":"VEC3"
		}
	],
	"bufferViews":[
		{
			"buffer":0,
			"byteLength":3744,
			"byteOffset":0,
			"target":34962
		},
		{
			"buffer":0,
			"byteLength":3744,
			"byteOffset":3744,
			"target":34962
		},
		{
			"buffer":0,
			"byteLength":2496,
			"byteOffset":7488,
			"target":34962
		},
		{
			"buffer":0,
			"byteLength":1224,
			"byteOffset":9984,
			"target":34963
		},
		{
			"buffer":0,
			"byteLength":360,
			"byteOffset":11208
		},
		{
			"buffer":0,
			"byteLength":1440,
			"byteOffset":11568
		},
		{
			"buffer":0,
			"byteLength":1080,
			"byteOffset":13008
		}
	],
	"samplers":[
		{
			"magFilter":9729,
			"minFilter":9987
		}
	],
	"buffers":[
		{
			"byteLength":14088,
			"uri":"PruebaAR.bin"
		}
	]
}
